<svg width="37" height="37" viewBox="0 0 37 37" fill="none" xmlns="http://www.w3.org/2000/svg">
<path fill-rule="evenodd" clip-rule="evenodd" d="M36.5 18.3047C36.5 28.2452 28.4405 36.3047 18.5 36.3047C8.5595 36.3047 0.5 28.2452 0.5 18.3047C0.5 8.36419 8.5595 0.304688 18.5 0.304688C28.4405 0.304688 36.5 8.36419 36.5 18.3047ZM19.145 13.5932C17.3945 14.3207 13.895 15.8282 8.648 18.1142C7.796 18.4532 7.349 18.7847 7.3085 19.1087C7.2395 19.6577 7.9265 19.8737 8.8595 20.1662C8.987 20.2067 9.119 20.2472 9.254 20.2922C10.1735 20.5907 11.4095 20.9402 12.0515 20.9537C12.635 20.9657 13.286 20.7257 14.0045 20.2337C18.9065 16.9232 21.437 15.2507 21.596 15.2147C21.7085 15.1892 21.8645 15.1562 21.9695 15.2507C22.0745 15.3437 22.064 15.5207 22.0535 15.5687C21.9845 15.8582 19.2935 18.3617 17.8985 19.6577C17.4635 20.0612 17.156 20.3477 17.093 20.4137C16.952 20.5592 16.808 20.6987 16.67 20.8322C15.815 21.6542 15.176 22.2722 16.706 23.2802C17.441 23.7647 18.029 24.1652 18.6155 24.5642C19.256 25.0007 19.895 25.4357 20.723 25.9787C20.933 26.1167 21.134 26.2592 21.3305 26.3987C22.076 26.9312 22.7465 27.4082 23.5745 27.3332C24.0545 27.2882 24.5525 26.8367 24.8045 25.4882C25.4 22.2992 26.573 15.3932 26.8445 12.5462C26.861 12.3098 26.851 12.0723 26.8145 11.8382C26.7927 11.6491 26.7006 11.4751 26.5565 11.3507C26.342 11.1752 26.009 11.1377 25.859 11.1407C25.1825 11.1527 24.1445 11.5142 19.145 13.5932V13.5932Z" fill="url(#paint0_linear_501_2754)"/>
<defs>
<linearGradient id="paint0_linear_501_2754" x1="0.5" y1="0.304688" x2="36.5" y2="36.3047" gradientUnits="userSpaceOnUse">
<stop stop-color="#E6CEAA"/>
<stop offset="1" stop-color="#C8A27B"/>
</linearGradient>
</defs>
</svg>
