<svg width="37" height="37" viewBox="0 0 37 37" fill="none" xmlns="http://www.w3.org/2000/svg">
<circle cx="18.5" cy="18.3047" r="18" fill="url(#paint0_linear_501_2758)"/>
<path d="M25.5 10.2147C24.5832 9.28867 23.4912 8.55441 22.2876 8.0548C21.0841 7.55518 19.7931 7.30021 18.49 7.30475C13.03 7.30475 8.58 11.7547 8.58 17.2147C8.58 18.9647 9.04 20.6647 9.9 22.1647L8.5 27.3047L13.75 25.9247C15.2 26.7147 16.83 27.1347 18.49 27.1347C23.95 27.1347 28.4 22.6847 28.4 17.2247C28.4 14.5747 27.37 12.0847 25.5 10.2147ZM18.49 25.4547C17.01 25.4547 15.56 25.0547 14.29 24.3047L13.99 24.1247L10.87 24.9447L11.7 21.9047L11.5 21.5947C10.6777 20.2817 10.2411 18.764 10.24 17.2147C10.24 12.6747 13.94 8.97475 18.48 8.97475C20.68 8.97475 22.75 9.83475 24.3 11.3947C25.0675 12.1587 25.6757 13.0674 26.0894 14.0682C26.5031 15.0689 26.714 16.1419 26.71 17.2247C26.73 21.7647 23.03 25.4547 18.49 25.4547ZM23.01 19.2947C22.76 19.1747 21.54 18.5747 21.32 18.4847C21.09 18.4047 20.93 18.3647 20.76 18.6047C20.59 18.8547 20.12 19.4147 19.98 19.5747C19.84 19.7447 19.69 19.7647 19.44 19.6347C19.19 19.5147 18.39 19.2447 17.45 18.4047C16.71 17.7447 16.22 16.9347 16.07 16.6847C15.93 16.4347 16.05 16.3047 16.18 16.1747C16.29 16.0647 16.43 15.8847 16.55 15.7447C16.67 15.6047 16.72 15.4947 16.8 15.3347C16.88 15.1647 16.84 15.0247 16.78 14.9047C16.72 14.7847 16.22 13.5647 16.02 13.0647C15.82 12.5847 15.61 12.6447 15.46 12.6347H14.98C14.81 12.6347 14.55 12.6947 14.32 12.9447C14.1 13.1947 13.46 13.7947 13.46 15.0147C13.46 16.2347 14.35 17.4147 14.47 17.5747C14.59 17.7447 16.22 20.2447 18.7 21.3147C19.29 21.5747 19.75 21.7247 20.11 21.8347C20.7 22.0247 21.24 21.9947 21.67 21.9347C22.15 21.8647 23.14 21.3347 23.34 20.7547C23.55 20.1747 23.55 19.6847 23.48 19.5747C23.41 19.4647 23.26 19.4147 23.01 19.2947Z" fill="#222222"/>
<defs>
<linearGradient id="paint0_linear_501_2758" x1="0.5" y1="0.304688" x2="36.5" y2="36.3047" gradientUnits="userSpaceOnUse">
<stop stop-color="#E6CEAA"/>
<stop offset="1" stop-color="#C8A27B"/>
</linearGradient>
</defs>
</svg>
