<svg width="37" height="37" viewBox="0 0 37 37" fill="none" xmlns="http://www.w3.org/2000/svg">
<circle cx="18.5" cy="18.3047" r="18" fill="url(#paint0_linear_501_2755)"/>
<path d="M17.921 7.30803C16.0608 7.33032 12.0616 7.63367 9.82471 9.67014C8.16083 11.3062 7.57989 13.7251 7.5118 16.7162C7.4553 19.6965 7.38721 25.2934 12.8236 26.8173V29.1384C12.8236 29.1384 12.7896 30.0672 13.4082 30.2577C14.1702 30.4971 14.6041 29.7825 15.3285 29.0148L16.6794 27.4988C20.399 27.8057 23.248 27.0984 23.5761 26.9934C24.3309 26.7541 28.5822 26.2149 29.2769 20.6173C29.9897 14.8364 28.9299 11.1941 27.0169 9.5465H27.0053C26.428 9.01887 24.1078 7.3411 18.9242 7.32241C18.9242 7.32241 18.5396 7.29653 17.921 7.30732V7.30803ZM17.9847 8.93333C18.5128 8.92973 18.8337 8.95202 18.8337 8.95202C23.2212 8.96352 25.3153 10.274 25.8094 10.7153C27.4203 12.0854 28.2505 15.3691 27.6427 20.1954C27.0654 24.875 23.6174 25.1712 22.9792 25.3732C22.7076 25.4594 20.1984 26.0733 17.0372 25.8713C17.0372 25.8713 14.6831 28.6906 13.9471 29.4166C13.8305 29.5439 13.6943 29.5813 13.6074 29.5626C13.4828 29.5324 13.4451 29.3793 13.4523 29.1694L13.4748 25.3171C8.8642 24.0519 9.13583 19.2781 9.18509 16.7845C9.24159 14.2908 9.71316 12.2508 11.117 10.8692C13.0069 9.17342 16.4027 8.94483 17.9833 8.93333H17.9847ZM18.3324 11.4263C18.2945 11.4259 18.2568 11.433 18.2216 11.4471C18.1865 11.4612 18.1545 11.4821 18.1275 11.5086C18.1005 11.535 18.079 11.5665 18.0643 11.6013C18.0496 11.636 18.042 11.6733 18.0419 11.7109C18.0419 11.8719 18.1738 11.9992 18.3324 11.9992C19.0506 11.9856 19.7644 12.1133 20.4327 12.3749C21.1009 12.6364 21.7104 13.0267 22.2259 13.5231C23.2784 14.5374 23.7913 15.9003 23.8108 17.6823C23.8108 17.8397 23.939 17.9706 24.1013 17.9706V17.9591C24.1778 17.9593 24.2512 17.9294 24.3056 17.8761C24.36 17.8228 24.391 17.7503 24.3918 17.6744C24.4269 16.8356 24.2899 15.9985 23.9889 15.2139C23.6879 14.4294 23.2293 13.7137 22.641 13.1105C21.4943 11.9985 20.0412 11.4255 18.3324 11.4255V11.4263ZM14.5143 12.0854C14.3092 12.0557 14.1001 12.0965 13.9217 12.2012H13.9065C13.4924 12.4421 13.1193 12.7466 12.8011 13.1033C12.5367 13.4067 12.3933 13.7136 12.3557 14.009C12.3332 14.1852 12.3484 14.3613 12.4013 14.5295L12.4201 14.541C12.7178 15.4093 13.1068 16.2446 13.582 17.031C14.1941 18.1359 14.9474 19.1576 15.8232 20.071L15.8493 20.1084L15.8906 20.1386L15.9167 20.1688L15.9471 20.1947C16.8708 21.0663 17.9029 21.8173 19.0184 22.4295C20.2933 23.1182 21.0669 23.4438 21.5312 23.5789V23.5861C21.6674 23.6271 21.7913 23.6458 21.9159 23.6458C22.3116 23.617 22.6862 23.4576 22.98 23.1929C23.3378 22.8771 23.6412 22.5054 23.8782 22.0924V22.0852C24.1006 21.6697 24.0252 21.2765 23.7043 21.0105C23.0617 20.4531 22.3667 19.9579 21.629 19.5319C21.135 19.2659 20.633 19.4269 20.4295 19.6965L19.9956 20.2392C19.7732 20.5088 19.369 20.4714 19.369 20.4714L19.3574 20.4786C16.3433 19.7145 15.5393 16.686 15.5393 16.686C15.5393 16.686 15.5016 16.2741 15.7805 16.0642L16.3237 15.63C16.5838 15.4201 16.7649 14.9227 16.486 14.4317C16.0596 13.6986 15.5618 13.0088 14.9996 12.3723C14.8767 12.2222 14.7043 12.1201 14.5128 12.084L14.5143 12.0854ZM18.8337 12.9394C18.449 12.9394 18.449 13.5159 18.8373 13.5159C19.3156 13.5236 19.7877 13.6248 20.2265 13.8136C20.6654 14.0025 21.0625 14.2753 21.395 14.6165C21.6984 14.9486 21.9316 15.3377 22.0806 15.7609C22.2297 16.184 22.2917 16.6326 22.2628 17.0799C22.2642 17.1556 22.2953 17.2278 22.3496 17.281C22.4039 17.3342 22.477 17.3642 22.5533 17.3646L22.5649 17.3797C22.6418 17.3791 22.7153 17.3486 22.7697 17.2946C22.824 17.2407 22.8548 17.1677 22.8554 17.0914C22.8815 15.9492 22.5236 14.991 21.8217 14.2233C21.1162 13.4555 20.1318 13.025 18.875 12.9394H18.8337V12.9394ZM19.3096 14.4892C18.9134 14.4777 18.8982 15.0657 19.2908 15.0772C20.2455 15.1261 20.7091 15.6049 20.7699 16.5897C20.7712 16.6644 20.802 16.7357 20.8556 16.7882C20.9092 16.8408 20.9814 16.8704 21.0568 16.8707H21.0684C21.1071 16.8691 21.1451 16.8598 21.1802 16.8434C21.2153 16.827 21.2467 16.8039 21.2727 16.7753C21.2986 16.7467 21.3186 16.7133 21.3314 16.677C21.3442 16.6407 21.3496 16.6022 21.3472 16.5638C21.2792 15.28 20.5736 14.5568 19.3212 14.49H19.3096V14.4892Z" fill="#222222"/>
<defs>
<linearGradient id="paint0_linear_501_2755" x1="0.5" y1="0.304688" x2="36.5" y2="36.3047" gradientUnits="userSpaceOnUse">
<stop stop-color="#E6CEAA"/>
<stop offset="1" stop-color="#C8A27B"/>
</linearGradient>
</defs>
</svg>
